<?xml version="1.0" encoding="UTF-8" standalone="no"?><!-- Generator: Gravit.io --><svg xmlns="http://www.w3.org/2000/svg" xmlns:xlink="http://www.w3.org/1999/xlink" style="isolation:isolate" viewBox="0 0 512 512" width="512pt" height="512pt"><defs><clipPath id="_clipPath_NZyO4Tyw8URNtYtwlixWHqOeFTiPRIXg"><rect width="512" height="512"/></clipPath></defs><g clip-path="url(#_clipPath_NZyO4Tyw8URNtYtwlixWHqOeFTiPRIXg)"><path d=" M 0 256 C 0 114.71 114.71 0 256 0 C 397.29 0 512 114.71 512 256 C 512 397.29 397.29 512 256 512 C 114.71 512 0 397.29 0 256 Z  M 178 256 C 178 212.951 212.951 178 256 178 C 299.049 178 334 212.951 334 256 C 334 299.049 299.049 334 256 334 C 212.951 334 178 299.049 178 256 Z " fill-rule="evenodd" fill="rgb(255,202,117)"/><path d=" M 466.414 165.529 C 478.485 193.271 485.175 223.864 485.175 256 C 485.175 261.297 484.993 266.553 484.63 271.759 C 489.464 295.182 488.904 319.775 482.024 344.109 C 465.504 402.538 416.587 445.164 356.851 460.868 L 356.851 460.868 C 326.414 475.761 292.18 484.125 256 484.125 C 232.773 484.125 210.347 480.678 189.216 474.263 L 189.216 474.263 C 167.82 470.736 146.675 464.113 126.692 454.199 C 57.547 419.895 21.791 355.847 29.979 293.909 C 27.905 281.578 26.825 268.913 26.825 256 L 26.825 256 C 26.825 236.408 29.312 217.389 33.998 199.244 L 33.998 199.244 C 33.976 181.409 36.866 163.38 42.971 145.736 C 66.618 77.402 131.755 34.353 203.72 32.105 C 236.981 19.554 273.73 14.268 310.623 18.357 C 400.171 28.282 462.33 90.305 466.414 165.529 Z  M 350.459 311.842 C 360.16 295.479 365.731 276.385 365.731 256 C 365.731 195.438 316.562 146.269 256 146.269 C 195.438 146.269 146.269 195.438 146.269 256 L 146.269 256 L 146.269 256 C 146.269 316.562 195.438 365.731 256 365.731 C 285.183 365.731 311.721 354.314 331.387 335.706 L 350.459 311.842 L 350.459 311.842 L 350.459 311.842 Z " fill-rule="evenodd" fill="rgb(187,127,67)"/><g><rect x="417.685" y="147.376" width="18" height="46.269" transform="matrix(-0.486,0.874,-0.874,-0.486,783.133,-119.453)" fill="rgb(255,102,102)"/><rect x="369.19" y="60.097" width="18" height="46.269" transform="matrix(-0.867,0.498,-0.498,-0.867,747.578,-32.988)" fill="rgb(64,192,64)"/><rect x="247" y="398.817" width="18" height="46.269" transform="matrix(-0.692,-0.722,0.722,-0.692,128.295,898.68)" fill="rgb(64,192,64)"/><rect x="75.503" y="263.417" width="18" height="46.269" transform="matrix(-0.867,0.498,-0.498,-0.867,300.518,492.926)" fill="rgb(64,192,64)"/><rect x="100.27" y="138.619" width="18" height="46.269" transform="matrix(-0.971,-0.239,0.239,-0.971,176.624,344.968)" fill="rgb(255,102,102)"/><rect x="157.052" y="49.812" width="18" height="46.269" transform="matrix(-0.61,-0.792,0.792,-0.61,209.637,248.999)" fill="rgb(255,255,77)"/><rect x="393.093" y="313.05" width="18" height="46.269" transform="matrix(0.6,-0.8,0.8,0.6,-108.184,455.835)" fill="rgb(255,255,255)"/><rect x="140.284" y="404.415" width="18" height="46.269" transform="matrix(0.99,0.14,-0.14,0.99,61.341,-16.692)" fill="rgb(255,255,255)"/><rect x="234.466" y="50.966" width="18" height="46.269" transform="matrix(0.685,0.728,-0.728,0.685,130.647,-154.019)" fill="rgb(255,255,255)"/><rect x="173.043" y="103.048" width="18" height="46.269" transform="matrix(0.992,-0.128,0.128,0.992,-14.619,24.273)" fill="rgb(255,102,255)"/><rect x="293.999" y="73.372" width="18" height="46.269" transform="matrix(0.123,-0.992,0.992,0.123,169.987,385.348)" fill="rgb(153,112,65)"/><rect x="112.15" y="344.258" width="18" height="46.269" transform="matrix(0.992,-0.128,0.128,0.992,-45.912,18.473)" fill="rgb(153,112,65)"/><rect x="373.157" y="263.866" width="18" height="46.269" transform="matrix(0.439,0.898,-0.898,0.439,472.17,-182.372)" fill="rgb(153,112,65)"/><rect x="71.009" y="344.258" width="18" height="46.269" transform="matrix(0.61,-0.792,0.792,0.61,-259.921,206.687)" fill="rgb(255,102,255)"/><rect x="433.526" y="213.986" width="18" height="46.269" transform="matrix(-0.529,-0.849,0.849,-0.529,475.412,738.093)" fill="rgb(255,102,255)"/><rect x="148.418" y="309.947" width="18" height="46.269" transform="matrix(0.182,-0.983,0.983,0.182,-198.785,427.119)" fill="rgb(255,255,77)"/><rect x="432.62" y="283.235" width="18" height="46.269" transform="matrix(0.645,-0.764,0.764,0.645,-77.291,446.447)" fill="rgb(255,255,77)"/><rect x="47.187" y="179.089" width="18" height="46.269" transform="matrix(0.83,0.558,-0.558,0.83,122.288,3.02)" fill="rgb(255,153,0)"/><rect x="327.941" y="137.402" width="18" height="46.269" transform="matrix(-0.757,-0.653,0.653,-0.757,487.364,502.112)" fill="rgb(255,153,0)"/><rect x="374.199" y="376.316" width="18" height="46.269" transform="matrix(0.83,0.558,-0.558,0.83,287.787,-145.8)" fill="rgb(255,153,0)"/><rect x="101.216" y="208.421" width="18" height="46.269" transform="matrix(-0.981,0.195,-0.195,-0.981,263.418,437.212)" fill="rgb(74,134,232)"/><rect x="381.235" y="194.11" width="18" height="46.269" transform="matrix(-0.981,0.195,-0.195,-0.981,815.307,354.327)" fill="rgb(74,134,232)"/><rect x="302.545" y="389.827" width="18" height="46.269" transform="matrix(-0.841,0.541,-0.541,-0.841,796.973,591.728)" fill="rgb(255,102,102)"/><rect x="199.914" y="368.352" width="18" height="46.269" transform="matrix(-0.994,-0.112,0.112,-0.994,372.68,803.904)" fill="rgb(74,134,232)"/></g></g></svg>